<svg width="1186" height="230" viewBox="0 0 1186 230" fill="none" xmlns="http://www.w3.org/2000/svg">
<path d="M337.2 186.4C326.933 186.4 317.733 184.733 309.6 181.4C301.467 178.067 294.933 173.133 290 166.6C285.2 160.067 282.667 152.2 282.4 143H318.8C319.333 148.2 321.133 152.2 324.2 155C327.267 157.667 331.267 159 336.2 159C341.267 159 345.267 157.867 348.2 155.6C351.133 153.2 352.6 149.933 352.6 145.8C352.6 142.333 351.4 139.467 349 137.2C346.733 134.933 343.867 133.067 340.4 131.6C337.067 130.133 332.267 128.467 326 126.6C316.933 123.8 309.533 121 303.8 118.2C298.067 115.4 293.133 111.267 289 105.8C284.867 100.333 282.8 93.2 282.8 84.4C282.8 71.3333 287.533 61.1333 297 53.8C306.467 46.3333 318.8 42.6 334 42.6C349.467 42.6 361.933 46.3333 371.4 53.8C380.867 61.1333 385.933 71.4 386.6 84.6H349.6C349.333 80.0667 347.667 76.5333 344.6 74C341.533 71.3333 337.6 70 332.8 70C328.667 70 325.333 71.1333 322.8 73.4C320.267 75.5333 319 78.6667 319 82.8C319 87.3333 321.133 90.8667 325.4 93.4C329.667 95.9333 336.333 98.6667 345.4 101.6C354.467 104.667 361.8 107.6 367.4 110.4C373.133 113.2 378.067 117.267 382.2 122.6C386.333 127.933 388.4 134.8 388.4 143.2C388.4 151.2 386.333 158.467 382.2 165C378.2 171.533 372.333 176.733 364.6 180.6C356.867 184.467 347.733 186.4 337.2 186.4ZM435.047 44.6V128.6C435.047 137 437.114 143.467 441.247 148C445.38 152.533 451.447 154.8 459.447 154.8C467.447 154.8 473.58 152.533 477.847 148C482.114 143.467 484.247 137 484.247 128.6V44.6H518.447V128.4C518.447 140.933 515.78 151.533 510.447 160.2C505.114 168.867 497.914 175.4 488.847 179.8C479.914 184.2 469.914 186.4 458.847 186.4C447.78 186.4 437.847 184.267 429.047 180C420.38 175.6 413.514 169.067 408.447 160.4C403.38 151.6 400.847 140.933 400.847 128.4V44.6H435.047ZM641.463 89.8C641.463 97.9333 639.596 105.4 635.863 112.2C632.129 118.867 626.396 124.267 618.663 128.4C610.929 132.533 601.329 134.6 589.863 134.6H568.663V185H534.463V44.6H589.863C601.063 44.6 610.529 46.5333 618.263 50.4C625.996 54.2667 631.796 59.6 635.663 66.4C639.529 73.2 641.463 81 641.463 89.8ZM587.263 107.4C593.796 107.4 598.663 105.867 601.863 102.8C605.063 99.7333 606.663 95.4 606.663 89.8C606.663 84.2 605.063 79.8667 601.863 76.8C598.663 73.7333 593.796 72.2 587.263 72.2H568.663V107.4H587.263ZM758.267 89.8C758.267 97.9333 756.401 105.4 752.667 112.2C748.934 118.867 743.201 124.267 735.467 128.4C727.734 132.533 718.134 134.6 706.667 134.6H685.467V185H651.267V44.6H706.667C717.867 44.6 727.334 46.5333 735.067 50.4C742.801 54.2667 748.601 59.6 752.467 66.4C756.334 73.2 758.267 81 758.267 89.8ZM704.067 107.4C710.601 107.4 715.467 105.867 718.667 102.8C721.867 99.7333 723.467 95.4 723.467 89.8C723.467 84.2 721.867 79.8667 718.667 76.8C715.467 73.7333 710.601 72.2 704.067 72.2H685.467V107.4H704.067ZM802.272 158.6H847.072V185H768.072V44.6H802.272V158.6ZM889.584 44.6V185H855.384V44.6H889.584ZM972.769 186.4C959.569 186.4 947.435 183.333 936.369 177.2C925.435 171.067 916.702 162.533 910.169 151.6C903.769 140.533 900.569 128.133 900.569 114.4C900.569 100.667 903.769 88.3333 910.169 77.4C916.702 66.4667 925.435 57.9333 936.369 51.8C947.435 45.6667 959.569 42.6 972.769 42.6C985.969 42.6 998.035 45.6667 1008.97 51.8C1020.04 57.9333 1028.7 66.4667 1034.97 77.4C1041.37 88.3333 1044.57 100.667 1044.57 114.4C1044.57 128.133 1041.37 140.533 1034.97 151.6C1028.57 162.533 1019.9 171.067 1008.97 177.2C998.035 183.333 985.969 186.4 972.769 186.4ZM972.769 155.2C983.969 155.2 992.902 151.467 999.569 144C1006.37 136.533 1009.77 126.667 1009.77 114.4C1009.77 102 1006.37 92.1333 999.569 84.8C992.902 77.3333 983.969 73.6 972.769 73.6C961.435 73.6 952.369 77.2667 945.569 84.6C938.902 91.9333 935.569 101.867 935.569 114.4C935.569 126.8 938.902 136.733 945.569 144.2C952.369 151.533 961.435 155.2 972.769 155.2ZM1106.4 186.4C1096.13 186.4 1086.93 184.733 1078.8 181.4C1070.66 178.067 1064.13 173.133 1059.2 166.6C1054.4 160.067 1051.86 152.2 1051.6 143H1088C1088.53 148.2 1090.33 152.2 1093.4 155C1096.46 157.667 1100.46 159 1105.4 159C1110.46 159 1114.46 157.867 1117.4 155.6C1120.33 153.2 1121.8 149.933 1121.8 145.8C1121.8 142.333 1120.6 139.467 1118.2 137.2C1115.93 134.933 1113.06 133.067 1109.6 131.6C1106.26 130.133 1101.46 128.467 1095.2 126.6C1086.13 123.8 1078.73 121 1073 118.2C1067.26 115.4 1062.33 111.267 1058.2 105.8C1054.06 100.333 1052 93.2 1052 84.4C1052 71.3333 1056.73 61.1333 1066.2 53.8C1075.66 46.3333 1088 42.6 1103.2 42.6C1118.66 42.6 1131.13 46.3333 1140.6 53.8C1150.06 61.1333 1155.13 71.4 1155.8 84.6H1118.8C1118.53 80.0667 1116.86 76.5333 1113.8 74C1110.73 71.3333 1106.8 70 1102 70C1097.86 70 1094.53 71.1333 1092 73.4C1089.46 75.5333 1088.2 78.6667 1088.2 82.8C1088.2 87.3333 1090.33 90.8667 1094.6 93.4C1098.86 95.9333 1105.53 98.6667 1114.6 101.6C1123.66 104.667 1131 107.6 1136.6 110.4C1142.33 113.2 1147.26 117.267 1151.4 122.6C1155.53 127.933 1157.6 134.8 1157.6 143.2C1157.6 151.2 1155.53 158.467 1151.4 165C1147.4 171.533 1141.53 176.733 1133.8 180.6C1126.06 184.467 1116.93 186.4 1106.4 186.4Z" fill="black"/>
<path d="M10.3923 133C3.96153 121.862 3.96153 108.138 10.3923 97L47.1077 33.4071C53.5385 22.2686 65.423 15.4071 78.2846 15.4071H151.715C164.577 15.4071 176.462 22.2686 182.892 33.4071L219.608 97C226.038 108.138 226.038 121.862 219.608 133L182.892 196.593C176.462 207.731 164.577 214.593 151.715 214.593H78.2846C65.423 214.593 53.5385 207.731 47.1077 196.593L10.3923 133Z" fill="url(#paint0_linear_46_38)"/>
<defs>
<linearGradient id="paint0_linear_46_38" x1="0" y1="115" x2="230" y2="115" gradientUnits="userSpaceOnUse">
<stop stop-color="#0F60FF"/>
<stop offset="0.265625" stop-color="#1C64F2"/>
<stop offset="0.572917" stop-color="#0F83E4"/>
<stop offset="0.942708" stop-color="#2AB2DA"/>
</linearGradient>
</defs>
</svg>