<svg id="Layer_1" data-name="Layer 1" xmlns="http://www.w3.org/2000/svg" viewBox="0 0 620.26 108.95"><defs><style>.cls-1{fill:#3c587a;}</style></defs><title>divio-logo-blue</title><rect class="cls-1" x="178.09" width="26.39" height="108.91"/><polygon class="cls-1" points="303.9 108.91 238.07 0 268.13 0 314.17 79.08 357.62 0 385.14 0 322.16 108.91 303.9 108.91"/><rect class="cls-1" x="415.48" width="26.39" height="108.91"/><path class="cls-1" d="M712.53,255.18c-3.93-3.44-9.57-7-20.53-7H607.93c-11,0-16.62,3.54-20.55,7s-7.74,8.47-7.74,18.76v57.43c0,10.12,3.79,15.14,7.74,18.65s9.57,7.09,20.55,7.09H692c10.79,0,16.39-3.57,20.41-7.09s7.86-8.53,7.86-18.65V273.94C720.27,263.65,716.49,258.6,712.53,255.18ZM693.6,327.66c0,4.86-5.08,8.8-11.35,8.8H617.66c-6.27,0-11.36-3.94-11.36-8.8v-50.6c0-4.85,5.09-8.79,11.36-8.79h64.59c6.27,0,11.35,3.94,11.35,8.79Z" transform="translate(-100.01 -248.16)"/><path class="cls-1" d="M100,248.19V357.11H212.38c10.79,0,16.38-3.57,20.41-7.09s7.86-8.53,7.86-18.65V273.94c0-10.29-3.79-15.34-7.74-18.76s-9.58-7-20.53-7H100Zm114,79.47c0,4.86-5.08,8.8-11.35,8.8h-76v-59.4l0-8.79h75.92c6.27,0,11.35,3.94,11.35,8.79Z" transform="translate(-100.01 -248.16)"/></svg>