<?xml version="1.0" encoding="UTF-8" standalone="no"?>
<svg
   xmlns:dc="http://purl.org/dc/elements/1.1/"
   xmlns:cc="http://creativecommons.org/ns#"
   xmlns:rdf="http://www.w3.org/1999/02/22-rdf-syntax-ns#"
   xmlns:svg="http://www.w3.org/2000/svg"
   xmlns="http://www.w3.org/2000/svg"
   id="svg2009"
   version="1.1"
   viewBox="0 0 119.33536 119.31272"
   height="119.31272mm"
   width="119.33536mm">
  <defs
     id="defs2003">
    <clipPath
       id="clipPath872"
       clipPathUnits="userSpaceOnUse">
      <path
         id="path870"
         d="m 127.001,685 h 2283 v 4733.999 h -2283 z" />
    </clipPath>
  </defs>
  <metadata
     id="metadata2006">
    <rdf:RDF>
      <cc:Work
         rdf:about="">
        <dc:format>image/svg+xml</dc:format>
        <dc:type
           rdf:resource="http://purl.org/dc/dcmitype/StillImage" />
        <dc:title></dc:title>
      </cc:Work>
    </rdf:RDF>
  </metadata>
  <g
     transform="translate(-8.7966013,-47.599597)"
     id="layer1">
    <g
       id="g866"
       transform="matrix(0.35277777,0,0,-0.35277777,-614.06282,408.56509)">
      <g
         clip-path="url(#clipPath872)"
         id="g868">
        <g
           transform="translate(1778.8867,780.5664)"
           id="g874">
          <path
             id="path876"
             style="fill:#525257;fill-opacity:1;fill-rule:nonzero;stroke:none"
             d="M 0,0 C 0,67.795 54.977,122.764 122.778,122.764 190.58,122.764 245.549,67.795 245.549,0 245.549,-67.793 190.58,-122.778 122.778,-122.778 54.977,-122.778 0,-67.793 0,0 m -9.217,0 c 0,-72.91 59.098,-131.995 131.995,-131.995 72.904,0 132.001,59.085 132.001,131.995 0,72.91 -59.097,132.008 -132.001,132.008 C 49.881,132.008 -9.217,72.91 -9.217,0" />
        </g>
        <g
           transform="translate(2208.2949,780.5664)"
           id="g878">
          <path
             id="path880"
             style="fill:#525257;fill-opacity:1;fill-rule:nonzero;stroke:none"
             d="m 0,0 c 0,67.781 54.931,122.724 122.703,122.724 67.748,0 122.706,-54.943 122.706,-122.724 0,-67.753 -54.958,-122.71 -122.706,-122.71 C 54.931,-122.71 0,-67.753 0,0 m -9.225,0 c 0,-72.857 59.065,-131.928 131.928,-131.928 72.863,0 131.922,59.071 131.922,131.928 0,72.87 -59.059,131.914 -131.922,131.914 C 49.84,131.914 -9.225,72.87 -9.225,0" />
        </g>
        <g
           transform="translate(1968.9316,973.6514)"
           id="g882">
          <path
             id="path884"
             style="fill:#68a8b6;fill-opacity:1;fill-rule:nonzero;stroke:none"
             d="m 0,0 265.096,-9.031 5.826,-10.567 -271.282,9.27 z" />
        </g>
        <g
           transform="translate(1962.584,945.0615)"
           id="g886">
          <path
             id="path888"
             style="fill:#68a8b6;fill-opacity:1;fill-rule:nonzero;stroke:none"
             d="M 0,0 188.283,-196.021 180.809,-203.22 -7.467,-7.198 Z" />
        </g>
        <g
           transform="translate(2135.8916,752.1113)"
           id="g890">
          <path
             id="path892"
             style="fill:#68a8b6;fill-opacity:1;fill-rule:nonzero;stroke:none"
             d="M 0,0 200.944,27.693 202.366,17.436 1.411,-10.27 Z" />
        </g>
        <g
           transform="translate(1988.2598,1003.5732)"
           id="g894">
          <path
             id="path896"
             style="fill:#68a8b6;fill-opacity:1;fill-rule:nonzero;stroke:none"
             d="m 0,0 -83.21,-231.062 -9.726,3.514 83.191,231.061 z" />
        </g>
        <g
           transform="translate(2236.0654,960.9189)"
           id="g898">
          <path
             id="path900"
             style="fill:#68a8b6;fill-opacity:1;fill-rule:nonzero;stroke:none"
             d="M 0,0 101.452,-183.798 92.4,-188.809 -9.082,-4.994 Z" />
        </g>
        <g
           transform="translate(2138.2617,751.6328)"
           id="g902">
          <path
             id="path904"
             style="fill:#68a8b6;fill-opacity:1;fill-rule:nonzero;stroke:none"
             d="m 0,0 99.695,243.899 6.051,-12.25 L 9.598,-3.902 Z" />
        </g>
        <g
           transform="translate(2192.625,1003.1729)"
           id="g906">
          <path
             id="path908"
             style="fill:#1d2629;fill-opacity:1;fill-rule:nonzero;stroke:none"
             d="m 0,0 c 0,0 3.341,11.954 21.953,9.979 0,0 47.244,-2.659 56.554,-0.696 0,0 21.3,0.696 7.328,-17.287 0,0 -12.651,-5.957 -23.958,-8.628 0,0 -6.651,-0.68 -16.618,9.951 0,0 0.663,5.33 -45.259,6.681" />
        </g>
        <g
           transform="translate(1978.8682,991.7783)"
           id="g910">
          <path
             id="path912"
             style="fill:#1d2629;fill-opacity:1;fill-rule:nonzero;stroke:none"
             d="m 0,0 -40.095,22.361 5.05,9.07 40.097,-22.39 z" />
        </g>
        <g
           transform="translate(2132.7129,747.7305)"
           id="g914">
          <path
             id="path916"
             style="fill:#1d2629;fill-opacity:1;fill-rule:nonzero;stroke:none"
             d="M 0,0 C 0,5.758 4.682,10.436 10.426,10.436 16.19,10.436 20.851,5.758 20.851,0 20.851,-5.755 16.19,-10.418 10.426,-10.418 4.682,-10.418 0,-5.755 0,0" />
        </g>
        <g
           transform="translate(2123.834,677.1855)"
           id="g918">
          <path
             id="path920"
             style="fill:#1d2629;fill-opacity:1;fill-rule:nonzero;stroke:none"
             d="m 0,0 4.996,-1.27 18.336,73.566 -4.997,1.269 z" />
        </g>
        <g
           transform="translate(2137.1006,756.4951)"
           id="g922">
          <path
             id="path924"
             style="fill:#1d2629;fill-opacity:1;fill-rule:nonzero;stroke:none"
             d="M 0,0 5.052,-1.016 20.11,73.298 15.075,74.325 Z" />
        </g>
        <g
           transform="translate(2000.3828,857.2979)"
           id="g926">
          <path
             id="path928"
             style="fill:#1d2629;fill-opacity:1;fill-rule:nonzero;stroke:none"
             d="m 0,0 c -8.274,-4.542 -13.396,-11.195 -11.409,-14.827 2.007,-3.675 10.36,-2.926 18.676,1.616 L 34.425,1.708 c 8.33,4.556 13.418,11.209 11.429,14.844 -1.997,3.633 -10.361,2.925 -18.676,-1.631 z" />
        </g>
        <g
           transform="translate(2232.3848,983.5615)"
           id="g930">
          <path
             id="path932"
             style="fill:#1d2629;fill-opacity:1;fill-rule:nonzero;stroke:none"
             d="m 0,0 c -1.4,-3.513 0.262,-7.506 3.795,-8.977 3.494,-1.416 7.502,0.269 8.951,3.782 L 17.427,6.32 c 1.424,3.499 -0.261,7.506 -3.78,8.951 -3.514,1.415 -7.526,-0.269 -8.971,-3.782 z" />
        </g>
        <g
           transform="translate(1971.9824,993.2197)"
           id="g934">
          <path
             id="path936"
             style="fill:#1d2629;fill-opacity:1;fill-rule:nonzero;stroke:none"
             d="m 0,0 c -1.441,-3.526 0.255,-7.533 3.781,-8.935 3.499,-1.458 7.52,0.24 8.957,3.739 l 4.657,11.488 c 1.435,3.513 -0.254,7.548 -3.756,8.951 -3.524,1.442 -7.541,-0.242 -8.962,-3.767 z" />
        </g>
        <g
           transform="translate(1775.0918,780.5664)"
           id="g938">
          <path
             id="path940"
             style="fill:#1d2629;fill-opacity:1;fill-rule:nonzero;stroke:none"
             d="m 0,0 c 0,69.906 56.675,126.586 126.573,126.586 69.923,0 126.576,-56.68 126.576,-126.586 0,-69.891 -56.653,-126.57 -126.576,-126.57 C 56.675,-126.57 0,-69.891 0,0 m -9.506,0 c 0,-75.153 60.924,-136.096 136.079,-136.096 75.149,0 136.075,60.943 136.075,136.096 0,75.143 -60.926,136.082 -136.075,136.082 C 51.418,136.082 -9.506,75.143 -9.506,0" />
        </g>
        <g
           transform="translate(1887.7441,779.5117)"
           id="g942">
          <path
             id="path944"
             style="fill:#1d2629;fill-opacity:1;fill-rule:nonzero;stroke:none"
             d="m 0,0 c 0,7.668 6.239,13.904 13.921,13.904 7.693,0 13.925,-6.236 13.925,-13.904 0,-7.694 -6.232,-13.934 -13.925,-13.934 C 6.239,-13.934 0,-7.694 0,0" />
        </g>
        <g
           transform="translate(1897.1016,654.0469)"
           id="g946">
          <path
             id="path948"
             style="fill:#1d2629;fill-opacity:1;fill-rule:nonzero;stroke:none"
             d="M 0,0 16.029,252.61 14.748,252.664 -1.281,0.095 Z" />
        </g>
        <g
           transform="translate(2028.1348,775.3301)"
           id="g950">
          <path
             id="path952"
             style="fill:#1d2629;fill-opacity:1;fill-rule:nonzero;stroke:none"
             d="m 0,0 0.025,1.269 -253.021,7.092 -0.047,-1.307 z" />
        </g>
        <g
           transform="translate(1984.626,684.9863)"
           id="g954">
          <path
             id="path956"
             style="fill:#1d2629;fill-opacity:1;fill-rule:nonzero;stroke:none"
             d="m 0,0 0.981,0.815 -165.877,191.24 -0.969,-0.828 z" />
        </g>
        <g
           transform="translate(1806.3447,697.29)"
           id="g958">
          <path
             id="path960"
             style="fill:#1d2629;fill-opacity:1;fill-rule:nonzero;stroke:none"
             d="M 0,0 191.809,165.218 190.96,166.194 -0.829,0.974 Z" />
        </g>
        <g
           transform="translate(2022.7783,743.5645)"
           id="g962">
          <path
             id="path964"
             style="fill:#1d2629;fill-opacity:1;fill-rule:nonzero;stroke:none"
             d="m 0,0 0.313,1.254 -244.494,65.418 -0.326,-1.257 z" />
        </g>
        <g
           transform="translate(2006.8438,710.1133)"
           id="g966">
          <path
             id="path968"
             style="fill:#1d2629;fill-opacity:1;fill-rule:nonzero;stroke:none"
             d="m 0,0 0.699,1.07 -212.787,137.123 -0.702,-1.08 z" />
        </g>
        <g
           transform="translate(1961.0752,668.7695)"
           id="g970">
          <path
             id="path972"
             style="fill:#1d2629;fill-opacity:1;fill-rule:nonzero;stroke:none"
             d="m 0,0 1.138,0.602 -118.878,223.541 -1.122,-0.603 z" />
        </g>
        <g
           transform="translate(1926.3574,656.4141)"
           id="g974">
          <path
             id="path976"
             style="fill:#1d2629;fill-opacity:1;fill-rule:nonzero;stroke:none"
             d="m 0,0 1.256,0.24 -46.434,248.842 -1.261,-0.242 z" />
        </g>
        <g
           transform="translate(1872.8164,657.2666)"
           id="g978">
          <path
             id="path980"
             style="fill:#1d2629;fill-opacity:1;fill-rule:nonzero;stroke:none"
             d="M 0,0 64.27,244.861 63.033,245.195 -1.25,0.336 Z" />
        </g>
        <g
           transform="translate(1837.9502,671.1738)"
           id="g982">
          <path
             id="path984"
             style="fill:#1d2629;fill-opacity:1;fill-rule:nonzero;stroke:none"
             d="m 0,0 130.745,216.781 -1.1,0.684 L -1.107,0.681 Z" />
        </g>
        <g
           transform="translate(1793.1201,715.418)"
           id="g986">
          <path
             id="path988"
             style="fill:#1d2629;fill-opacity:1;fill-rule:nonzero;stroke:none"
             d="m 0,0 218.745,127.479 -0.646,1.11 L -0.655,1.107 Z" />
        </g>
        <g
           transform="translate(1778.6602,750.6436)"
           id="g990">
          <path
             id="path992"
             style="fill:#1d2629;fill-opacity:1;fill-rule:nonzero;stroke:none"
             d="M 0,0 246.384,58.31 246.088,59.593 -0.289,1.269 Z" />
        </g>
        <g
           transform="translate(2203.8721,780.5664)"
           id="g994">
          <path
             id="path996"
             style="fill:#1d2629;fill-opacity:1;fill-rule:nonzero;stroke:none"
             d="m 0,0 c 0,69.906 56.673,126.586 126.578,126.586 69.905,0 126.578,-56.68 126.578,-126.586 0,-69.891 -56.673,-126.57 -126.578,-126.57 C 56.673,-126.57 0,-69.891 0,0 m -9.495,0 c 0,-75.153 60.906,-136.096 136.073,-136.096 75.155,0 136.082,60.943 136.082,136.096 0,75.143 -60.927,136.082 -136.082,136.082 C 51.411,136.082 -9.495,75.143 -9.495,0" />
        </g>
        <g
           transform="translate(2316.5449,779.5117)"
           id="g998">
          <path
             id="path1000"
             style="fill:#1d2629;fill-opacity:1;fill-rule:nonzero;stroke:none"
             d="m 0,0 c 0,7.668 6.213,13.904 13.905,13.904 7.687,0 13.9,-6.236 13.9,-13.904 0,-7.694 -6.213,-13.934 -13.9,-13.934 C 6.213,-13.934 0,-7.694 0,0" />
        </g>
        <g
           transform="translate(2325.8887,654.0469)"
           id="g1002">
          <path
             id="path1004"
             style="fill:#1d2629;fill-opacity:1;fill-rule:nonzero;stroke:none"
             d="M 0,0 16.018,252.61 14.742,252.664 -1.302,0.095 Z" />
        </g>
        <g
           transform="translate(2456.9102,775.3301)"
           id="g1006">
          <path
             id="path1008"
             style="fill:#1d2629;fill-opacity:1;fill-rule:nonzero;stroke:none"
             d="m 0,0 0.055,1.269 -253.079,7.092 -0.014,-1.307 z" />
        </g>
        <g
           transform="translate(2413.4004,684.9863)"
           id="g1010">
          <path
             id="path1012"
             style="fill:#1d2629;fill-opacity:1;fill-rule:nonzero;stroke:none"
             d="m 0,0 0.982,0.815 -165.872,191.24 -0.975,-0.828 z" />
        </g>
        <g
           transform="translate(2235.1191,697.29)"
           id="g1014">
          <path
             id="path1016"
             style="fill:#1d2629;fill-opacity:1;fill-rule:nonzero;stroke:none"
             d="m 0,0 191.815,165.218 -0.829,0.976 L -0.829,0.974 Z" />
        </g>
        <g
           transform="translate(2451.5508,743.5645)"
           id="g1018">
          <path
             id="path1020"
             style="fill:#1d2629;fill-opacity:1;fill-rule:nonzero;stroke:none"
             d="m 0,0 0.343,1.254 -244.507,65.418 -0.328,-1.257 z" />
        </g>
        <g
           transform="translate(2435.6221,710.1133)"
           id="g1022">
          <path
             id="path1024"
             style="fill:#1d2629;fill-opacity:1;fill-rule:nonzero;stroke:none"
             d="m 0,0 0.694,1.07 -212.8,137.123 -0.688,-1.08 z" />
        </g>
        <g
           transform="translate(2389.8428,668.7695)"
           id="g1026">
          <path
             id="path1028"
             style="fill:#1d2629;fill-opacity:1;fill-rule:nonzero;stroke:none"
             d="m 0,0 1.135,0.602 -118.878,223.541 -1.115,-0.603 z" />
        </g>
        <g
           transform="translate(2355.125,656.4141)"
           id="g1030">
          <path
             id="path1032"
             style="fill:#1d2629;fill-opacity:1;fill-rule:nonzero;stroke:none"
             d="m 0,0 1.263,0.24 -46.429,248.842 -1.256,-0.242 z" />
        </g>
        <g
           transform="translate(2301.584,657.2666)"
           id="g1034">
          <path
             id="path1036"
             style="fill:#1d2629;fill-opacity:1;fill-rule:nonzero;stroke:none"
             d="M 0,0 64.26,244.861 63.023,245.195 -1.224,0.336 Z" />
        </g>
        <g
           transform="translate(2266.7246,671.1738)"
           id="g1038">
          <path
             id="path1040"
             style="fill:#1d2629;fill-opacity:1;fill-rule:nonzero;stroke:none"
             d="m 0,0 130.744,216.781 -1.1,0.684 L -1.104,0.681 Z" />
        </g>
        <g
           transform="translate(2221.8945,715.418)"
           id="g1042">
          <path
             id="path1044"
             style="fill:#1d2629;fill-opacity:1;fill-rule:nonzero;stroke:none"
             d="m 0,0 218.749,127.479 -0.654,1.11 L -0.643,1.107 Z" />
        </g>
        <g
           transform="translate(2207.4316,750.6436)"
           id="g1046">
          <path
             id="path1048"
             style="fill:#1d2629;fill-opacity:1;fill-rule:nonzero;stroke:none"
             d="M 0,0 246.385,58.31 246.098,59.593 -0.292,1.269 Z" />
        </g>
        <g
           transform="translate(2141.7168,703.3555)"
           id="g1050">
          <path
             id="path1052"
             style="fill:#1d2629;fill-opacity:1;fill-rule:nonzero;stroke:none"
             d="m 0,0 c 61.081,0 185.971,71.439 191.86,74.819 l 2.957,1.711 -3.358,0.654 c -6.191,1.242 -156.755,30.165 -208.213,8.991 l 0.962,-2.364 C 30.675,102.9 164.743,79.642 187.537,75.328 165.235,62.838 26.668,-13.053 -17.374,5.463 L -18.375,3.098 C -13.307,0.974 -7.062,0 0,0" />
        </g>
        <g
           transform="translate(2156.0156,834.7607)"
           id="g1054">
          <path
             id="path1056"
             style="fill:#1d2629;fill-opacity:1;fill-rule:nonzero;stroke:none"
             d="m 0,0 c 2.044,-2.671 1.391,-6.597 -1.448,-8.775 -2.865,-2.203 -6.82,-1.819 -8.857,0.869 L -22.51,8.018 c -2.042,2.656 -1.388,6.61 1.471,8.775 2.852,2.191 6.806,1.775 8.855,-0.869 z" />
        </g>
        <g
           transform="translate(2098.2949,747.3174)"
           id="g1058">
          <path
             id="path1060"
             style="fill:none;stroke:#7a7c7d;stroke-width:2;stroke-linecap:butt;stroke-linejoin:miter;stroke-miterlimit:10;stroke-dasharray:none;stroke-opacity:1"
             d="M 0,0 C 0,-23.991 19.409,-43.4 43.382,-43.4 67.354,-43.4 86.75,-23.991 86.75,0 86.75,23.965 67.354,43.348 43.382,43.348 19.409,43.348 0,23.965 0,0 Z" />
        </g>
        <g
           transform="translate(2141.6768,747.3174)"
           id="g1062">
          <path
             id="path1064"
             style="fill:none;stroke:#7a7c7d;stroke-width:2;stroke-linecap:butt;stroke-linejoin:miter;stroke-miterlimit:10;stroke-dasharray:none;stroke-opacity:1"
             d="M 0,0 V 43.348" />
        </g>
        <g
           transform="translate(2141.6768,747.3174)"
           id="g1066">
          <path
             id="path1068"
             style="fill:none;stroke:#7a7c7d;stroke-width:2;stroke-linecap:butt;stroke-linejoin:miter;stroke-miterlimit:10;stroke-dasharray:none;stroke-opacity:1"
             d="M 0,0 -41.246,13.397" />
        </g>
        <g
           transform="translate(2141.6768,747.3174)"
           id="g1070">
          <path
             id="path1072"
             style="fill:none;stroke:#7a7c7d;stroke-width:2;stroke-linecap:butt;stroke-linejoin:miter;stroke-miterlimit:10;stroke-dasharray:none;stroke-opacity:1"
             d="M 0,0 -25.507,-35.106" />
        </g>
        <g
           transform="translate(2141.6768,747.3174)"
           id="g1074">
          <path
             id="path1076"
             style="fill:none;stroke:#7a7c7d;stroke-width:2;stroke-linecap:butt;stroke-linejoin:miter;stroke-miterlimit:10;stroke-dasharray:none;stroke-opacity:1"
             d="M 0,0 25.508,-35.106" />
        </g>
        <g
           transform="translate(2141.6768,747.3174)"
           id="g1078">
          <path
             id="path1080"
             style="fill:none;stroke:#7a7c7d;stroke-width:2;stroke-linecap:butt;stroke-linejoin:miter;stroke-miterlimit:10;stroke-dasharray:none;stroke-opacity:1"
             d="M 0,0 41.265,13.397" />
        </g>
      </g>
    </g>
  </g>
</svg>
